<?xml version="1.0" encoding="utf-8"?>
<svg version="1.1" xmlns:xlink="http://www.w3.org/1999/xlink" width="12px" height="9px" xmlns="http://www.w3.org/2000/svg">
  <g transform="matrix(1 0 0 1 -17 -48 )">
    <path d="M 11.7832258064516 1.24242424242425  C 11.9277419354839 1.38383838383845  12 1.55555555555554  12 1.75757575757575  C 12 1.95959595959596  11.9277419354839 2.13131313131311  11.7832258064516 2.27272727272725  L 6.17806451612904 7.75757575757575  L 5.12516129032258 8.78787878787875  C 4.98064516129031 8.92929292929296  4.80516129032259 9  4.59870967741935 9  C 4.39225806451614 9  4.21677419354839 8.92929292929296  4.07225806451612 8.78787878787875  L 3.01935483870966 7.75757575757575  L 0.216774193548417 5.0151515151515  C 0.0722580645161486 4.87373737373741  0 4.70202020202021  0 4.5  C 0 4.29797979797979  0.0722580645161486 4.12626262626259  0.216774193548417 3.9848484848485  L 1.26967741935482 2.9545454545455  C 1.41419354838709 2.81313131313135  1.58967741935484 2.74242424242425  1.79612903225805 2.74242424242425  C 2.00258064516129 2.74242424242425  2.17806451612901 2.81313131313135  2.32258064516131 2.9545454545455  L 4.59870967741935 5.18939393939394  L 9.67741935483869 0.212121212121247  C 9.82193548387099 0.0707070707070443  9.99741935483871 0  10.2038709677419 0  C 10.4103225806452 0  10.5858064516129 0.0707070707070443  10.7303225806452 0.212121212121247  L 11.7832258064516 1.24242424242425  Z " fill-rule="nonzero" fill="#15aacc" stroke="none" transform="matrix(1 0 0 1 17 48 )" />
  </g>
</svg>