<?xml version="1.0" encoding="utf-8"?>
<svg version="1.1" xmlns:xlink="http://www.w3.org/1999/xlink" width="15px" height="10px" xmlns="http://www.w3.org/2000/svg">
  <g transform="matrix(1 0 0 1 -228 -115 )">
    <path d="M 4.5 5  L 5.25 4.28571428571429  L 8.25 7.14285714285714  L 5.25 10  L 0 5  L 5.25 0  L 6.5625 1.25  L 5.8125 1.96428571428571  L 5.25 1.42857142857143  L 1.5 5  L 5.25 8.57142857142857  L 6.7578125 7.13541666666667  L 4.5 5  Z M 6.75 2.85714285714286  L 9.75 0  L 15 5  L 9.75 10  L 8.4375 8.75  L 9.1875 8.03571428571429  L 9.75 8.57142857142857  L 13.5 5  L 9.75 1.42857142857143  L 8.2421875 2.86458333333333  L 10.5 5  L 9.75 5.71428571428571  L 6.75 2.85714285714286  Z " fill-rule="nonzero" fill="#282e6c" stroke="none" fill-opacity="0.749019607843137" transform="matrix(1 0 0 1 228 115 )" />
  </g>
</svg>