<?xml version="1.0" encoding="utf-8"?>
<svg version="1.1" xmlns:xlink="http://www.w3.org/1999/xlink" width="13px" height="11px" xmlns="http://www.w3.org/2000/svg">
  <g transform="matrix(1 0 0 1 -10 -8 )">
    <path d="M 12.8391927083333 8.96328125  C 12.9463975694444 9.07213541666667  13 9.20104166666667  13 9.35  L 13 10.45  C 13 10.5989583333333  12.9463975694444 10.7278645833333  12.8391927083333 10.83671875  C 12.7319878472222 10.9455729166667  12.6050347222222 11  12.4583333333333 11  L 0.541666666666667 11  C 0.394965277777778 11  0.268012152777778 10.9455729166667  0.160807291666667 10.83671875  C 0.0536024305555556 10.7278645833333  0 10.5989583333333  0 10.45  L 0 9.35  C 0 9.20104166666667  0.0536024305555556 9.07213541666667  0.160807291666667 8.96328125  C 0.268012152777778 8.85442708333333  0.394965277777778 8.8  0.541666666666667 8.8  L 12.4583333333333 8.8  C 12.6050347222222 8.8  12.7319878472222 8.85442708333333  12.8391927083333 8.96328125  Z M 12.8391927083333 4.56328125  C 12.9463975694444 4.67213541666667  13 4.80104166666667  13 4.95  L 13 6.05  C 13 6.19895833333333  12.9463975694444 6.32786458333333  12.8391927083333 6.43671875  C 12.7319878472222 6.54557291666667  12.6050347222222 6.6  12.4583333333333 6.6  L 0.541666666666667 6.6  C 0.394965277777778 6.6  0.268012152777778 6.54557291666667  0.160807291666667 6.43671875  C 0.0536024305555556 6.32786458333333  0 6.19895833333333  0 6.05  L 0 4.95  C 0 4.80104166666667  0.0536024305555556 4.67213541666667  0.160807291666667 4.56328125  C 0.268012152777778 4.45442708333333  0.394965277777778 4.4  0.541666666666667 4.4  L 12.4583333333333 4.4  C 12.6050347222222 4.4  12.7319878472222 4.45442708333333  12.8391927083333 4.56328125  Z M 12.8391927083333 0.16328125  C 12.9463975694444 0.272135416666666  13 0.401041666666666  13 0.55  L 13 1.65  C 13 1.79895833333333  12.9463975694444 1.92786458333333  12.8391927083333 2.03671875  C 12.7319878472222 2.14557291666667  12.6050347222222 2.2  12.4583333333333 2.2  L 0.541666666666667 2.2  C 0.394965277777778 2.2  0.268012152777778 2.14557291666667  0.160807291666667 2.03671875  C 0.0536024305555556 1.92786458333333  0 1.79895833333333  0 1.65  L 0 0.55  C 0 0.401041666666666  0.0536024305555556 0.272135416666666  0.160807291666667 0.16328125  C 0.268012152777778 0.0544270833333327  0.394965277777778 0  0.541666666666667 0  L 12.4583333333333 0  C 12.6050347222222 0  12.7319878472222 0.0544270833333327  12.8391927083333 0.16328125  Z " fill-rule="nonzero" fill="#000000" stroke="none" fill-opacity="0.109803921568627" transform="matrix(1 0 0 1 10 8 )" />
  </g>
</svg>