<?xml version="1.0" encoding="utf-8"?>
<svg version="1.1" xmlns:xlink="http://www.w3.org/1999/xlink" width="12px" height="13px" xmlns="http://www.w3.org/2000/svg">
  <g transform="matrix(1 0 0 1 -862 -94 )">
    <path d="M 0.991586538461661 11.8362630208333  C 1.03725961538476 11.8898654513889  1.09134615384619 11.9166666666667  1.15384615384619 11.9166666666667  L 5.53846153846166 11.9166666666667  L 5.53846153846166 2.16666666666666  L 0.923076923076906 2.16666666666666  L 0.923076923076906 11.6458333333333  C 0.923076923076906 11.7191840277778  0.945913461538566 11.7826605902778  0.991586538461661 11.8362630208333  Z M 11.0084134615383 11.8362630208333  C 11.0540865384614 11.7826605902778  11.0769230769231 11.7191840277778  11.0769230769231 11.6458333333333  L 11.0769230769231 2.16666666666666  L 6.46153846153834 2.16666666666666  L 6.46153846153834 11.9166666666667  L 10.8461538461538 11.9166666666667  C 10.9086538461538 11.9166666666667  10.9627403846152 11.8898654513889  11.0084134615383 11.8362630208333  Z M 11.6610576923076 0.397786458333336  C 11.8870192307693 0.662977430555554  12 0.981770833333336  12 1.35416666666666  L 12 11.6458333333333  C 12 12.0182291666667  11.8870192307693 12.3370225694444  11.6610576923076 12.6022135416667  C 11.4350961538462 12.8674045138889  11.1634615384617 13  10.8461538461538 13  L 1.15384615384619 13  C 0.836538461538339 13  0.564903846153811 12.8674045138889  0.338942307692378 12.6022135416667  C 0.112980769230717 12.3370225694444  0 12.0182291666667  0 11.6458333333333  L 0 1.35416666666666  C 0 0.981770833333336  0.112980769230717 0.662977430555554  0.338942307692378 0.397786458333336  C 0.564903846153811 0.132595486111111  0.836538461538339 0  1.15384615384619 0  L 10.8461538461538 0  C 11.1634615384617 0  11.4350961538462 0.132595486111111  11.6610576923076 0.397786458333336  Z " fill-rule="nonzero" fill="#3c476f" stroke="none" fill-opacity="0.8" transform="matrix(1 0 0 1 862 94 )" />
  </g>
</svg>