<?xml version="1.0" encoding="utf-8"?>
<svg version="1.1" xmlns:xlink="http://www.w3.org/1999/xlink" width="11px" height="11px" xmlns="http://www.w3.org/2000/svg">
  <g transform="matrix(1 0 0 1 -75 -12 )">
    <path d="M 6.74609375 6.74609375  C 7.32562099358972 6.16656650641025  7.61538461538464 5.46915064102564  7.61538461538464 4.65384615384616  C 7.61538461538464 3.83854166666666  7.32562099358972 3.14112580128204  6.74609375 2.56159855769232  C 6.16656650641028 1.98207131410257  5.46915064102564 1.69230769230768  4.65384615384619 1.69230769230768  C 3.83854166666663 1.69230769230768  3.1411258012821 1.98207131410257  2.56159855769226 2.56159855769232  C 1.98207131410254 3.14112580128204  1.69230769230774 3.83854166666666  1.69230769230774 4.65384615384616  C 1.69230769230774 5.46915064102564  1.98207131410254 6.16656650641025  2.56159855769226 6.74609375  C 3.1411258012821 7.32562099358975  3.83854166666663 7.61538461538461  4.65384615384619 7.61538461538461  C 5.46915064102564 7.61538461538461  6.16656650641028 7.32562099358975  6.74609375 6.74609375  Z M 10.7554086538462 9.55889423076923  C 10.9184695512821 9.72195512820514  11 9.92027243589743  11 10.1538461538462  C 11 10.3830128205128  10.916266025641 10.5813301282051  10.7487980769231 10.7487980769231  C 10.5813301282051 10.916266025641  10.3830128205128 11  10.1538461538462 11  C 9.91586538461536 11  9.71754807692309 10.916266025641  9.55889423076928 10.7487980769231  L 7.29146634615381 8.48798076923077  C 6.50260416666663 9.03445512820514  5.62339743589746 9.30769230769232  4.65384615384619 9.30769230769232  C 4.02363782051282 9.30769230769232  3.42097355769226 9.18539663461539  2.84585336538464 8.94080528846155  C 2.27073317307691 8.69621394230768  1.77493990384619 8.36568509615384  1.35847355769226 7.94921875  C 0.942007211538453 7.53275240384616  0.611478365384642 7.03695913461539  0.366887019230717 6.46183894230768  C 0.122295673076906 5.88671875  0 5.28405448717947  0 4.65384615384616  C 0 4.02363782051282  0.122295673076906 3.42097355769232  0.366887019230717 2.84585336538461  C 0.611478365384642 2.27073317307693  0.942007211538453 1.77493990384616  1.35847355769226 1.35847355769232  C 1.77493990384619 0.942007211538453  2.27073317307691 0.611478365384613  2.84585336538464 0.366887019230774  C 3.42097355769226 0.122295673076934  4.02363782051282 0  4.65384615384619 0  C 5.28405448717945 0  5.88671875 0.122295673076934  6.46183894230774 0.366887019230774  C 7.03695913461536 0.611478365384613  7.53275240384619 0.942007211538453  7.94921875 1.35847355769232  C 8.36568509615381 1.77493990384616  8.69621394230774 2.27073317307693  8.94080528846155 2.84585336538461  C 9.18539663461536 3.42097355769232  9.30769230769226 4.02363782051282  9.30769230769226 4.65384615384616  C 9.30769230769226 5.62339743589743  9.03445512820508 6.50260416666666  8.48798076923072 7.29146634615384  L 10.7554086538462 9.55889423076923  Z " fill-rule="nonzero" fill="#3c476f" stroke="none" fill-opacity="0.8" transform="matrix(1 0 0 1 75 12 )" />
  </g>
</svg>