<?xml version="1.0" encoding="utf-8"?>
<svg version="1.1" xmlns:xlink="http://www.w3.org/1999/xlink" width="12px" height="12px" xmlns="http://www.w3.org/2000/svg">
  <g transform="matrix(1 0 0 1 -946 -94 )">
    <path d="M 7.796875 7.671875  C 8.27604166666667 7.22395833333333  8.84375 7  9.5 7  C 10.1927083333333 7  10.7825520833333 7.24348958333333  11.26953125 7.73046875  C 11.7565104166667 8.21744791666667  12 8.80729166666666  12 9.5  C 12 10.1927083333333  11.7565104166667 10.7825520833333  11.26953125 11.26953125  C 10.7825520833333 11.7565104166667  10.1927083333333 12  9.5 12  C 8.80729166666667 12  8.21744791666667 11.7565104166667  7.73046875 11.26953125  C 7.24348958333333 10.7825520833333  7 10.1927083333333  7 9.5  C 7 9.4375  7.00520833333333 9.34895833333333  7.015625 9.234375  L 4.203125 7.828125  C 3.72395833333333 8.27604166666667  3.15625 8.5  2.5 8.5  C 1.80729166666667 8.5  1.21744791666667 8.25651041666666  0.73046875 7.76953125  C 0.243489583333333 7.28255208333333  0 6.69270833333333  0 6  C 0 5.30729166666667  0.243489583333333 4.71744791666667  0.73046875 4.23046875  C 1.21744791666667 3.74348958333333  1.80729166666667 3.5  2.5 3.5  C 3.15625 3.5  3.72395833333333 3.72395833333333  4.203125 4.171875  L 7.015625 2.765625  C 7.00520833333333 2.65104166666667  7 2.5625  7 2.5  C 7 1.80729166666667  7.24348958333333 1.21744791666667  7.73046875 0.73046875  C 8.21744791666667 0.243489583333333  8.80729166666667 0  9.5 0  C 10.1927083333333 0  10.7825520833333 0.243489583333333  11.26953125 0.73046875  C 11.7565104166667 1.21744791666667  12 1.80729166666667  12 2.5  C 12 3.19270833333333  11.7565104166667 3.78255208333333  11.26953125 4.26953125  C 10.7825520833333 4.75651041666667  10.1927083333333 5  9.5 5  C 8.84375 5  8.27604166666667 4.77604166666667  7.796875 4.328125  L 4.984375 5.734375  C 4.99479166666667 5.84895833333333  5 5.9375  5 6  C 5 6.0625  4.99479166666667 6.15104166666667  4.984375 6.265625  L 7.796875 7.671875  Z " fill-rule="nonzero" fill="#636c8c" stroke="none" transform="matrix(1 0 0 1 946 94 )" />
  </g>
</svg>