<?xml version="1.0" encoding="utf-8"?>
<svg version="1.1" xmlns:xlink="http://www.w3.org/1999/xlink" width="24px" height="28px" xmlns="http://www.w3.org/2000/svg">
  <g transform="matrix(1 0 0 1 -253 -132 )">
    <path d="M 18.0625 1.0625  L 22.9375 5.9375  C 23.2291666666667 6.22916666666666  23.4791666666667 6.625  23.6875 7.125  C 23.8958333333333 7.625  24 8.08333333333333  24 8.5  L 24 26.5  C 24 26.9166666666667  23.8541666666667 27.2708333333333  23.5625 27.5625  C 23.2708333333333 27.8541666666667  22.9166666666667 28  22.5 28  L 1.5 28  C 1.08333333333333 28  0.729166666666667 27.8541666666667  0.4375 27.5625  C 0.145833333333333 27.2708333333333  0 26.9166666666667  0 26.5  L 0 1.5  C 0 1.08333333333333  0.145833333333333 0.729166666666666  0.4375 0.4375  C 0.729166666666667 0.145833333333334  1.08333333333333 0  1.5 0  L 15.5 0  C 15.9166666666667 0  16.375 0.104166666666668  16.875 0.3125  C 17.375 0.520833333333333  17.7708333333333 0.770833333333332  18.0625 1.0625  Z M 16.640625 2.46875  C 16.515625 2.34375  16.3020833333333 2.22916666666666  16 2.125  L 16 8  L 21.875 8  C 21.7708333333333 7.69791666666666  21.65625 7.484375  21.53125 7.359375  L 16.640625 2.46875  Z M 2 26  L 22 26  L 22 10  L 15.5 10  C 15.0833333333333 10  14.7291666666667 9.85416666666666  14.4375 9.5625  C 14.1458333333333 9.27083333333333  14 8.91666666666666  14 8.5  L 14 2  L 2 2  L 2 26  Z M 11.6875 13.015625  C 12.2604166666667 14.7239583333333  13.0208333333333 15.9635416666667  13.96875 16.734375  C 14.3125 17.0052083333333  14.75 17.296875  15.28125 17.609375  C 15.8958333333333 17.5364583333333  16.5052083333333 17.5  17.109375 17.5  C 18.640625 17.5  19.5625 17.7552083333333  19.875 18.265625  C 20.0416666666667 18.4947916666667  20.0520833333333 18.765625  19.90625 19.078125  C 19.90625 19.0885416666667  19.9010416666667 19.0989583333333  19.890625 19.109375  L 19.859375 19.140625  L 19.859375 19.15625  C 19.796875 19.5520833333333  19.4270833333333 19.75  18.75 19.75  C 18.25 19.75  17.6510416666667 19.6458333333333  16.953125 19.4375  C 16.2552083333333 19.2291666666667  15.578125 18.953125  14.921875 18.609375  C 12.6197916666667 18.859375  10.578125 19.2916666666667  8.796875 19.90625  C 7.203125 22.6354166666667  5.94270833333333 24  5.015625 24  C 4.859375 24  4.71354166666667 23.9635416666667  4.578125 23.890625  L 4.203125 23.703125  C 4.19270833333333 23.6927083333333  4.16145833333333 23.6666666666667  4.109375 23.625  C 4.00520833333333 23.5208333333333  3.97395833333333 23.3333333333333  4.015625 23.0625  C 4.109375 22.6458333333333  4.40104166666667 22.1692708333333  4.890625 21.6328125  C 5.38020833333333 21.0963541666667  6.06770833333333 20.59375  6.953125 20.125  C 7.09895833333333 20.03125  7.21875 20.0625  7.3125 20.21875  C 7.33333333333333 20.2395833333333  7.34375 20.2604166666667  7.34375 20.28125  C 7.88541666666667 19.3958333333333  8.44270833333333 18.3697916666667  9.015625 17.203125  C 9.72395833333333 15.7864583333333  10.265625 14.421875  10.640625 13.109375  C 10.390625 12.2552083333333  10.2317708333333 11.4244791666667  10.1640625 10.6171875  C 10.0963541666667 9.80989583333333  10.1302083333333 9.14583333333333  10.265625 8.625  C 10.3802083333333 8.20833333333333  10.5989583333333 8  10.921875 8  L 11.25 8  L 11.265625 8  C 11.5052083333333 8  11.6875 8.078125  11.8125 8.234375  C 12 8.453125  12.046875 8.80729166666666  11.953125 9.296875  C 11.9322916666667 9.359375  11.9114583333333 9.40104166666666  11.890625 9.421875  C 11.9010416666667 9.453125  11.90625 9.49479166666666  11.90625 9.546875  L 11.90625 10.015625  C 11.8854166666667 11.296875  11.8125 12.296875  11.6875 13.015625  Z M 5.7421875 22  C 5.36197916666667 22.4583333333333  5.10416666666667 22.84375  4.96875 23.15625  C 5.51041666666667 22.90625  6.22395833333333 22.0833333333333  7.109375 20.6875  C 6.578125 21.1041666666667  6.12239583333333 21.5416666666667  5.7421875 22  Z M 11.1875 8.75  L 11.1875 8.78125  C 11.03125 9.21875  11.0208333333333 9.90625  11.15625 10.84375  C 11.1666666666667 10.7708333333333  11.203125 10.5416666666667  11.265625 10.15625  C 11.265625 10.125  11.3020833333333 9.90104166666666  11.375 9.484375  C 11.3854166666667 9.44270833333333  11.40625 9.40104166666666  11.4375 9.359375  C 11.4270833333333 9.34895833333333  11.421875 9.33854166666666  11.421875 9.328125  C 11.4114583333333 9.30729166666666  11.40625 9.29166666666666  11.40625 9.28125  C 11.3958333333333 9.05208333333333  11.328125 8.86458333333333  11.203125 8.71875  C 11.203125 8.72916666666666  11.1979166666667 8.73958333333333  11.1875 8.75  Z M 9.953125 17.8125  C 9.640625 18.3958333333333  9.40625 18.828125  9.25 19.109375  C 10.65625 18.546875  12.1354166666667 18.125  13.6875 17.84375  C 13.6666666666667 17.8333333333333  13.5989583333333 17.7838541666667  13.484375 17.6953125  C 13.3697916666667 17.6067708333333  13.2864583333333 17.5364583333333  13.234375 17.484375  C 12.4427083333333 16.7864583333333  11.78125 15.8697916666667  11.25 14.734375  C 10.96875 15.6302083333333  10.5364583333333 16.65625  9.953125 17.8125  Z M 19.375 18.90625  C 19.375 18.8958333333333  19.3645833333333 18.8802083333333  19.34375 18.859375  C 19.09375 18.609375  18.3645833333333 18.484375  17.15625 18.484375  C 17.9479166666667 18.7760416666667  18.59375 18.921875  19.09375 18.921875  C 19.2395833333333 18.921875  19.3333333333333 18.9166666666667  19.375 18.90625  Z " fill-rule="nonzero" fill="#ff4a4a" stroke="none" transform="matrix(1 0 0 1 253 132 )" />
  </g>
</svg>