<?xml version="1.0" encoding="utf-8"?>
<svg version="1.1" xmlns:xlink="http://www.w3.org/1999/xlink" width="10px" height="9px" xmlns="http://www.w3.org/2000/svg">
  <g transform="matrix(1 0 0 1 -131 -10 )">
    <path d="M 9.87630208333333 7.33359375  C 9.95876736111111 7.42265625  10 7.528125  10 7.65  L 10 8.55  C 10 8.671875  9.95876736111111 8.77734375  9.87630208333333 8.86640625  C 9.79383680555556 8.95546875  9.69618055555556 9  9.58333333333333 9  L 0.416666666666667 9  C 0.303819444444444 9  0.206163194444444 8.95546875  0.123697916666667 8.86640625  C 0.0412326388888889 8.77734375  0 8.671875  0 8.55  L 0 7.65  C 0 7.528125  0.0412326388888889 7.42265625  0.123697916666667 7.33359375  C 0.206163194444444 7.24453125  0.303819444444444 7.2  0.416666666666667 7.2  L 9.58333333333333 7.2  C 9.69618055555556 7.2  9.79383680555556 7.24453125  9.87630208333333 7.33359375  Z M 9.87630208333333 3.73359375  C 9.95876736111111 3.82265625  10 3.928125  10 4.05  L 10 4.95  C 10 5.071875  9.95876736111111 5.17734375  9.87630208333333 5.26640625  C 9.79383680555556 5.35546875  9.69618055555556 5.4  9.58333333333333 5.4  L 0.416666666666667 5.4  C 0.303819444444444 5.4  0.206163194444444 5.35546875  0.123697916666667 5.26640625  C 0.0412326388888889 5.17734375  0 5.071875  0 4.95  L 0 4.05  C 0 3.928125  0.0412326388888889 3.82265625  0.123697916666667 3.73359375  C 0.206163194444444 3.64453125  0.303819444444444 3.6  0.416666666666667 3.6  L 9.58333333333333 3.6  C 9.69618055555556 3.6  9.79383680555556 3.64453125  9.87630208333333 3.73359375  Z M 9.87630208333333 0.13359375  C 9.95876736111111 0.222656249999999  10 0.328124999999999  10 0.45  L 10 1.35  C 10 1.471875  9.95876736111111 1.57734375  9.87630208333333 1.66640625  C 9.79383680555556 1.75546875  9.69618055555556 1.8  9.58333333333333 1.8  L 0.416666666666667 1.8  C 0.303819444444444 1.8  0.206163194444444 1.75546875  0.123697916666667 1.66640625  C 0.0412326388888889 1.57734375  0 1.471875  0 1.35  L 0 0.45  C 0 0.328124999999999  0.0412326388888889 0.222656249999999  0.123697916666667 0.13359375  C 0.206163194444444 0.0445312499999995  0.303819444444444 0  0.416666666666667 0  L 9.58333333333333 0  C 9.69618055555556 0  9.79383680555556 0.0445312499999995  9.87630208333333 0.13359375  Z " fill-rule="nonzero" fill="#1a4769" stroke="none" fill-opacity="0.498039215686275" transform="matrix(1 0 0 1 131 10 )" />
  </g>
</svg>