<?xml version="1.0" encoding="utf-8"?>
<svg version="1.1" xmlns:xlink="http://www.w3.org/1999/xlink" width="23px" height="27px" xmlns="http://www.w3.org/2000/svg">
  <g transform="matrix(1 0 0 1 -354 -133 )">
    <path d="M 17.3098958333333 1.02455357142857  L 21.9817708333333 5.72544642857143  C 22.2612847222222 6.00669642857143  22.5008680555556 6.38839285714286  22.7005208333333 6.87053571428571  C 22.9001736111111 7.35267857142857  23 7.79464285714286  23 8.19642857142857  L 23 25.5535714285714  C 23 25.9553571428571  22.8602430555556 26.296875  22.5807291666667 26.578125  C 22.3012152777778 26.859375  21.9618055555556 27  21.5625 27  L 1.4375 27  C 1.03819444444444 27  0.698784722222222 26.859375  0.419270833333333 26.578125  C 0.139756944444444 26.296875  0 25.9553571428571  0 25.5535714285714  L 0 1.44642857142857  C 0 1.04464285714286  0.139756944444444 0.703124999999999  0.419270833333333 0.421875  C 0.698784722222222 0.140625000000001  1.03819444444444 0  1.4375 0  L 14.8541666666667 0  C 15.2534722222222 0  15.6927083333333 0.10044642857143  16.171875 0.301339285714286  C 16.6510416666667 0.502232142857143  17.0303819444444 0.74330357142857  17.3098958333333 1.02455357142857  Z M 15.947265625 2.38058035714286  C 15.8274739583333 2.26004464285714  15.6228298611111 2.14955357142857  15.3333333333333 2.04910714285714  L 15.3333333333333 7.71428571428571  L 20.9635416666667 7.71428571428571  C 20.8637152777778 7.42299107142857  20.75390625 7.21707589285714  20.6341145833333 7.09654017857143  L 15.947265625 2.38058035714286  Z M 2 25  L 21 25  L 21 9.64285714285714  L 14.8541666666667 9.64285714285714  C 14.4548611111111 9.64285714285714  14.1154513888889 9.50223214285714  13.8359375 9.22098214285714  C 13.5564236111111 8.93973214285714  13.4166666666667 8.59821428571428  13.4166666666667 8.19642857142857  L 13.4166666666667 2  L 2 2  L 2 25  Z M 7.44205729166667 21.5457589285714  L 6.423828125 21.5457589285714  L 6.423828125 23.1428571428571  L 10.6315104166667 23.1428571428571  L 10.6315104166667 21.5457589285714  L 9.50846354166667 21.5457589285714  L 11.05078125 19.1199776785714  C 11.1006944444444 19.0496651785714  11.1506076388889 18.966796875  11.2005208333333 18.8713727678571  C 11.2504340277778 18.7759486607143  11.2878689236111 18.7081473214286  11.3128255208333 18.66796875  C 11.3377821180556 18.6277901785714  11.3552517361111 18.6077008928571  11.365234375 18.6077008928571  L 11.3951822916667 18.6077008928571  C 11.4051649305556 18.6478794642857  11.4301215277778 18.6981026785714  11.4700520833333 18.7583705357143  C 11.4900173611111 18.7985491071429  11.5124782986111 18.8362165178571  11.5374348958333 18.8713727678571  C 11.5623914930556 18.9065290178571  11.5923394097222 18.9467075892857  11.6272786458333 18.9919084821429  C 11.6622178819444 19.037109375  11.6946614583333 19.0797991071429  11.724609375 19.1199776785714  L 13.3268229166667 21.5457589285714  L 12.1888020833333 21.5457589285714  L 12.1888020833333 23.1428571428571  L 16.5462239583333 23.1428571428571  L 16.5462239583333 21.5457589285714  L 15.5279947916667 21.5457589285714  L 12.6529947916667 17.4324776785714  L 15.5729166666667 13.18359375  L 16.576171875 13.18359375  L 16.576171875 11.5714285714286  L 12.3984375 11.5714285714286  L 12.3984375 13.18359375  L 13.5065104166667 13.18359375  L 11.9641927083333 15.5792410714286  C 11.9242621527778 15.6495535714286  11.8743489583333 15.732421875  11.814453125 15.8278459821429  C 11.7545572916667 15.9232700892857  11.7096354166667 15.9910714285714  11.6796875 16.03125  L 11.6497395833333 16.0764508928571  L 11.6197916666667 16.0764508928571  C 11.6098090277778 16.0362723214286  11.5848524305556 15.9860491071429  11.544921875 15.92578125  C 11.4850260416667 15.8152901785714  11.4001736111111 15.6997767857143  11.2903645833333 15.5792410714286  L 9.703125 13.18359375  L 10.8411458333333 13.18359375  L 10.8411458333333 11.5714285714286  L 6.49869791666667 11.5714285714286  L 6.49869791666667 13.18359375  L 7.51692708333333 13.18359375  L 10.3470052083333 17.2818080357143  L 7.44205729166667 21.5457589285714  Z " fill-rule="nonzero" fill="#3da751" stroke="none" transform="matrix(1 0 0 1 354 133 )" />
  </g>
</svg>