<?xml version="1.0" encoding="utf-8"?>
<svg version="1.1" xmlns:xlink="http://www.w3.org/1999/xlink" width="12px" height="12px" xmlns="http://www.w3.org/2000/svg">
  <g transform="matrix(1 0 0 1 -816 -94 )">
    <path d="M 8.01313645118276 10.3459821428572  C 8.05402735937577 10.3861607142858  8.07447281347238 10.4375000000001  8.07447281347238 10.5  L 8.07447281347238 11.7857142857142  C 8.07447281347238 11.8482142857143  8.05402735937577 11.8995535714286  8.01313645118276 11.9397321428572  C 7.97224554298964 11.9799107142858  7.91999604918762 12  7.85638796977618 12  L 6.11170922020852 12  C 6.04810114079707 12  5.99585164699495 11.9799107142858  5.95496073880194 11.9397321428572  C 5.91406983060882 11.8995535714286  5.89362437651252 11.8482142857143  5.89362437651252 11.7857142857142  L 5.89362437651252 10.5  C 5.89362437651252 10.4375000000001  5.91406983060882 10.3861607142858  5.95496073880194 10.3459821428572  C 5.99585164699495 10.3058035714286  6.04810114079707 10.2857142857142  6.11170922020852 10.2857142857142  L 7.85638796977618 10.2857142857142  C 7.91999604918762 10.2857142857142  7.97224554298964 10.3058035714286  8.01313645118276 10.3459821428572  Z M 4.74186379574313 9.4888392857142  C 4.78275470393604 9.52901785714282  4.80320015803254 9.58035714285709  4.80320015803254 9.64285714285718  C 4.80320015803254 9.69642857142862  4.78048298681421 9.75  4.73504864437756 9.80357142857138  L 2.56101535878327 11.9397321428572  C 2.51558101634651 11.9799107142858  2.46333152254438 12  2.40426687737679 12  C 2.34974566645274 12  2.29749617265062 11.9799107142858  2.24751839597021 11.9397321428572  L 0.0666699590104558 9.796875  C -0.00148155464452988 9.72544642857152  -0.0173835744974963 9.64732142857145  0.0189638994517665 9.5625  C 0.055311373401344 9.47321428571427  0.12346288705633 9.42857142857138  0.223418440416934 9.42857142857138  L 1.53192750259291 9.42857142857138  L 1.53192750259291 0.214285714285797  C 1.53192750259291 0.151785714285657  1.55237295668942 0.100446428571384  1.59326386488232 0.0602678571428197  C 1.63415477307523 0.0200892857142033  1.68640426687746 0  1.7500123462888 0  L 3.05852140846468 0  C 3.12212948787612 0  3.17437898167814 0.0200892857142033  3.21526988987126 0.0602678571428197  C 3.25616079806406 0.100446428571384  3.27660625216067 0.151785714285657  3.27660625216067 0.214285714285797  L 3.27660625216067 9.42857142857138  L 4.58511531433665 9.42857142857138  C 4.64872339374789 9.42857142857138  4.70097288755012 9.4486607142858  4.74186379574313 9.4888392857142  Z M 9.32164551335874 6.9174107142858  C 9.36253642155175 6.9575892857142  9.38298187564815 7.00892857142848  9.38298187564815 7.07142857142862  L 9.38298187564815 8.35714285714282  C 9.38298187564815 8.41964285714291  9.36253642155175 8.47098214285718  9.32164551335874 8.5111607142858  C 9.28075460516562 8.5513392857142  9.22850511136349 8.57142857142862  9.16489703195226 8.57142857142862  L 6.11170922020852 8.57142857142862  C 6.04810114079707 8.57142857142862  5.99585164699495 8.5513392857142  5.95496073880194 8.5111607142858  C 5.91406983060882 8.47098214285718  5.89362437651252 8.41964285714291  5.89362437651252 8.35714285714282  L 5.89362437651252 7.07142857142862  C 5.89362437651252 7.00892857142848  5.91406983060882 6.9575892857142  5.95496073880194 6.9174107142858  C 5.99585164699495 6.87723214285718  6.04810114079707 6.85714285714282  6.11170922020852 6.85714285714282  L 9.16489703195226 6.85714285714282  C 9.22850511136349 6.85714285714282  9.28075460516562 6.87723214285718  9.32164551335874 6.9174107142858  Z M 10.6301545755347 3.4888392857142  C 10.6710454837276 3.52901785714282  10.691490937824 3.58035714285709  10.691490937824 3.64285714285718  L 10.691490937824 4.92857142857138  C 10.691490937824 4.99107142857152  10.6710454837276 5.0424107142858  10.6301545755347 5.0825892857142  C 10.5892636673417 5.12276785714282  10.5370141735395 5.14285714285718  10.4734060941281 5.14285714285718  L 6.11170922020852 5.14285714285718  C 6.04810114079707 5.14285714285718  5.99585164699495 5.12276785714282  5.95496073880194 5.0825892857142  C 5.91406983060882 5.0424107142858  5.89362437651252 4.99107142857152  5.89362437651252 4.92857142857138  L 5.89362437651252 3.64285714285718  C 5.89362437651252 3.58035714285709  5.91406983060882 3.52901785714282  5.95496073880194 3.4888392857142  C 5.99585164699495 3.4486607142858  6.04810114079707 3.42857142857138  6.11170922020852 3.42857142857138  L 10.4734060941281 3.42857142857138  C 10.5370141735395 3.42857142857138  10.5892636673417 3.4486607142858  10.6301545755347 3.4888392857142  Z M 11.9386636377104 0.0602678571428197  C 11.9795545459035 0.100446428571384  12 0.151785714285657  12 0.214285714285797  L 12 1.5  C 12 1.56249999999993  11.9795545459035 1.6138392857142  11.9386636377104 1.65401785714282  C 11.8977727295176 1.69419642857138  11.8455232357154 1.7142857142858  11.7819151563041 1.7142857142858  L 6.11170922020852 1.7142857142858  C 6.04810114079707 1.7142857142858  5.99585164699495 1.69419642857138  5.95496073880194 1.65401785714282  C 5.91406983060882 1.6138392857142  5.89362437651252 1.56249999999993  5.89362437651252 1.5  L 5.89362437651252 0.214285714285797  C 5.89362437651252 0.151785714285657  5.91406983060882 0.100446428571384  5.95496073880194 0.0602678571428197  C 5.99585164699495 0.0200892857142033  6.04810114079707 0  6.11170922020852 0  L 11.7819151563041 0  C 11.8455232357154 0  11.8977727295176 0.0200892857142033  11.9386636377104 0.0602678571428197  Z " fill-rule="nonzero" fill="#3c476f" stroke="none" fill-opacity="0.8" transform="matrix(1 0 0 1 816 94 )" />
  </g>
</svg>